<svg width="645" height="550" viewBox="0 0 645 550" fill="none" xmlns="http://www.w3.org/2000/svg">
<rect width="645" height="645" transform="translate(0 -48)" fill="white"/>
<path fill-rule="evenodd" clip-rule="evenodd" d="M59.7805 174.969C85.8672 218.361 163.706 271.091 179.039 272.256C227.541 275.94 296.589 284.091 358.259 286.28L360.126 286.344C381.914 287.076 411.489 287.148 448.851 286.561C456.221 279.959 463.099 275.263 469.484 272.472L469.987 272.256C473.405 270.81 482.215 261.605 504.405 252.155C510.51 249.555 528.562 255.366 541.183 250.739L541.799 250.508C551.995 246.615 568.808 236.512 592.236 220.197C592.094 219.817 591.949 219.437 591.801 219.057C592.354 219.984 592.899 220.914 593.437 221.849C593.973 222.78 635.516 321.979 559.34 398.806C507.396 451.194 369.313 500.551 249.371 472.337C-55.6979 406.414 47.0256 153.753 59.7805 174.969Z" fill="#64FCD9"/>
<path fill-rule="evenodd" clip-rule="evenodd" d="M572.009 327.757C573.712 324.637 575.085 321.417 578.076 319.377C578.435 319.132 579.155 318.824 579.294 318.962C579.678 319.343 580.057 319.944 580.062 320.461C580.101 325.287 576.961 328.888 575.077 332.963C574.083 335.114 572.665 337.069 571.418 339.101C571.17 339.506 570.862 339.886 570.527 340.225C570.214 340.541 569.561 341.063 569.518 341.022C568.993 340.511 568.329 339.973 568.154 339.321C567.978 338.668 568.231 337.853 568.439 337.152C569.183 334.645 569.952 332.144 570.795 329.67C571.02 329.008 571.54 328.447 572.009 327.757" fill="white"/>
<path fill-rule="evenodd" clip-rule="evenodd" d="M571.509 319.92C571.267 321.496 571.263 323.025 570.914 324.471C570.392 326.639 569.744 328.794 568.936 330.871C567.996 333.288 566.896 335.65 565.732 337.969C564.965 339.496 564.012 340.94 563.039 342.35C562.697 342.846 562.045 343.126 561.54 343.513C560.463 344.337 560.194 343.024 560.2 342.731C560.255 340.066 560.117 337.406 560.92 334.762C561.506 332.831 561.458 330.714 561.795 328.698C562.023 327.34 562.458 326.017 562.751 324.668C563.191 322.645 563.564 320.607 564.008 318.585C564.766 315.14 565.565 311.729 568.976 309.739C569.659 309.34 569.976 309.343 570.663 309.79C572.213 310.799 572.867 311.963 572.458 313.85C572.033 315.816 571.87 317.839 571.509 319.92" fill="white"/>
<path fill-rule="evenodd" clip-rule="evenodd" d="M493.618 383.579C490.65 378.445 487.677 373.257 482.869 369.614C480.883 368.108 478.429 366.998 476.015 366.34C473.801 365.738 471.429 365.914 469.008 366.347C466.047 366.876 463.191 367.52 460.464 368.73C456.584 370.453 453.307 373.05 450.615 376.28C446.692 380.987 443.488 385.948 445.897 392.593C446.802 395.089 449.987 397.066 452.666 396.633C454.283 396.372 455.981 396.572 457.64 396.629C459.045 396.677 460.452 396.953 461.847 396.887C464.259 396.773 466.658 396.366 469.069 396.277C472.083 396.165 475.104 396.25 478.121 396.25C479.195 396.25 480.296 396.402 481.337 396.216C483.156 395.892 485.045 395.604 486.714 394.868C490.831 393.053 495.316 389.402 493.618 383.579Z" fill="white"/>
<path fill-rule="evenodd" clip-rule="evenodd" d="M234.049 392.559C234.049 392.559 241.147 393.213 250.19 389.645C259.232 386.077 261.486 379.594 261.486 379.594C261.486 379.594 259.545 370.295 257.71 368.114C255.781 365.819 252.161 365.698 250.19 366.629C248.344 367.501 244.553 368.269 242.001 372.285C240.658 374.399 241.448 378.399 239.249 384.605C238.429 386.919 234.049 392.559 234.049 392.559Z" fill="white"/>
<path fill-rule="evenodd" clip-rule="evenodd" d="M136.386 386.717C136.386 386.717 157.29 394.053 168.655 396.321C180.021 398.588 200.925 399.591 200.925 399.591C200.925 399.591 217.838 373.368 224.078 356.49C230.318 339.612 234.975 307.49 234.975 307.49C234.975 307.49 217.657 313.214 211.524 322.039C205.391 330.865 210.494 347.204 200.925 356.49C189.611 367.469 172.167 356.239 156.909 363.385C141.652 370.531 136.386 386.717 136.386 386.717Z" fill="white"/>
<path fill-rule="evenodd" clip-rule="evenodd" d="M209.242 455.723C232.107 457.75 314.857 429.137 333.148 409.423C338.873 403.253 344.107 390.983 338.734 384.962C322.5 366.769 251.975 342.888 265.941 310.648C270.605 299.88 299.517 292.214 299.517 292.214C299.517 292.214 304.594 289.687 305.29 288.47C305.986 287.252 303.101 285.942 303.101 285.942L333.148 286.443C333.148 286.443 332.758 293.909 328.836 296.897C317.991 305.157 305.29 305.157 303.101 317.062C300.044 333.688 330.483 357.028 346.781 365.975C388.137 388.675 400.688 410.067 545.209 395.454C526.033 407.449 475.544 437.766 400.324 453.443C277.458 479.05 190.498 454.062 209.242 455.723Z" fill="white"/>
<path fill-rule="evenodd" clip-rule="evenodd" d="M413.865 175.765C427.417 188.074 465.9 246.603 472.896 261.247C473.265 262.021 474.763 267.511 474.763 267.511C474.763 267.511 459.632 270.527 451.096 274.138C442.561 277.749 427.411 286.953 427.411 286.953C427.411 286.953 383.802 287.379 355.306 286.422C301.125 284.602 236.008 283.587 197.413 274.138C189.03 272.086 166.085 256.365 159.489 246.498C152.462 235.987 164.645 221.457 178.455 207.846C217.007 169.853 308.948 80.4724 413.865 175.765Z" fill="#FFB61D"/>
<path d="M493.311 187.877C491.215 189.034 487.628 187.875 485.659 188.902C481.682 190.977 477.712 186.974 473.553 188.462C470.897 189.412 468.292 190.319 465.529 190.622C463.591 190.835 461.702 192.091 459.778 192.147C457.111 192.226 454.919 193.598 452.829 195.364C450.883 197.01 449.129 199.035 447.225 200.77C446.541 201.394 445.69 201.873 444.869 202.042C443.65 202.292 440.67 202.194 439.429 202.269C437.251 202.403 435.075 202.666 432.898 202.669C430.719 202.672 400.216 211.372 396.72 213.657C396.466 213.822 396.185 213.918 395.917 214.046C396.061 213.79 396.178 213.497 396.353 213.285C398.027 211.255 399.519 209.939 401.441 208.442C403.984 206.463 406.81 205.014 409.621 203.729C411.835 202.716 414.204 202.256 416.516 201.624C418.571 201.063 420.63 200.481 422.709 200.129C425.198 199.707 427.707 199.372 430.214 199.276C432.275 199.196 434.362 199.808 436.406 199.595C439.408 199.282 444.13 198.681 447.071 197.838C448.166 197.524 449.376 196.45 450.026 195.255C451.316 192.883 453.113 191.395 454.995 190.398C456.711 189.489 458.747 189.611 460.638 189.249C462.398 188.911 464.156 188.555 465.91 188.168C467.412 187.836 468.952 187.634 470.393 187.039C472.304 186.249 474.119 185.073 476.009 184.181C477.005 183.71 478.126 183.66 479.094 183.124C481.62 181.727 520.014 172.295 523.875 173.918C527.737 175.541 521.809 179.887 520.014 179.708C518.189 179.526 516.328 179.876 514.488 180.082C512.408 180.315 510.306 180.464 508.265 180.989C506.279 181.5 504.338 182.359 502.418 183.219C500.461 184.095 498.549 185.147 496.625 186.147C495.568 186.697 494.526 187.299 493.311 187.877Z" fill="white"/>
<path d="M393.614 211.497C392.751 208.482 395.23 207.094 396.747 204.981C400.114 200.291 404.868 197.304 410.035 194.949C412.277 193.927 414.542 192.912 416.883 192.166C419.695 191.27 422.6 190.665 425.465 189.931C425.865 189.829 426.257 189.644 426.661 189.612C427.749 189.525 428.795 188.628 428.959 188.521C429.602 188.104 430.299 187.465 430.519 186.764C431.038 185.111 431.21 183.352 431.677 181.679C432.527 178.631 434.895 176.906 437.54 175.625C440.787 174.051 444.12 172.647 447.458 171.274C451.66 169.546 455.913 167.944 460.13 166.252C464.06 164.675 467.897 162.817 471.923 161.549C473.892 160.929 476.194 161.366 478.346 161.34C478.425 161.339 478.506 161.498 478.586 161.583C478.445 161.696 478.321 161.861 478.159 161.915C473.85 163.369 469.512 164.741 465.234 166.282C462.283 167.345 459.428 168.673 456.503 169.811C455.28 170.286 453.937 170.463 452.731 170.971C450.206 172.035 447.75 173.263 445.236 174.355C443.387 175.158 441.441 175.75 439.626 176.619C437.168 177.797 434.588 178.986 433.78 181.936C433.48 183.034 433.904 184.37 433.488 185.389C432.907 186.809 432.068 188.279 430.946 189.292C428.635 191.376 425.682 192.266 422.674 192.949C420.843 193.364 419.071 194.069 417.229 194.402C413.515 195.074 410.105 196.531 406.833 198.293C402.316 200.726 397.895 203.365 395.439 207.886C394.773 209.112 394.495 210.547 394.022 211.88C393.972 212.023 393.809 212.127 393.698 212.249C393.698 212.026 393.697 211.803 393.614 211.497Z" fill="white"/>
<path d="M390.806 209.83C390.617 208.974 390.405 208.199 390.43 207.431C390.48 205.847 390.508 204.238 390.808 202.689C391.944 196.821 396.14 193.137 400.34 189.413C403.871 186.281 407.514 183.214 409.666 178.827C410.505 177.118 410.392 175.439 410.347 173.598C410.238 169.225 407.84 166.166 404.846 163.641C401.775 161.052 398.287 158.94 394.9 156.745C390.666 154.003 387.065 150.731 384.766 146.134C383.39 143.383 384.075 137.918 386.347 135.815C386.897 135.306 387.769 134.907 388.5 134.895C389.338 134.88 389.746 135.633 389.548 136.529C389.507 136.714 389.415 136.992 389.281 137.037C387.479 137.648 385.723 142.266 386.956 144.016C387.848 145.282 388.17 147.013 389.205 148.1C391.247 150.247 393.559 152.149 395.847 154.047C399.676 157.223 403.684 160.192 407.406 163.486C410.191 165.95 412.188 169.171 412.981 172.79C413.381 174.618 413.023 176.776 412.151 178.649C410.377 182.458 407.61 185.399 404.434 188.116C400.676 191.33 396.52 194.271 394.129 198.76C393.056 200.775 392.33 203.083 391.981 205.34C391.71 207.098 392.281 208.983 392.44 210.814C392.463 211.073 392.276 211.349 392.186 211.617C391.976 211.457 391.711 211.336 391.568 211.129C391.304 210.75 391.111 210.321 390.806 209.83Z" fill="white"/>
<path fill-rule="evenodd" clip-rule="evenodd" d="M352.936 240.671V286.036L402.85 287.662H417.305V242.532H421.715L402.553 229.346C402.553 229.346 402.553 224.213 402.14 220.335C401.158 218.317 398.196 217.976 396.278 217.612C394.359 217.248 391.514 216.8 391.514 218.317C391.514 219.834 391.514 224.213 391.514 224.213L378.522 222.215L352.936 240.671Z" fill="white"/>
<path fill-rule="evenodd" clip-rule="evenodd" d="M394.126 287.377L402.85 287.662L400.27 238.179L394.898 234.236L394.126 287.377Z" fill="#E7EAEE"/>
<path fill-rule="evenodd" clip-rule="evenodd" d="M360.466 317.836C360.838 316.986 361.686 315.995 361.484 315.315C361.068 313.916 360.379 312.333 359.296 311.442C354.538 307.525 349.474 304.142 343.229 302.873C339.924 302.201 336.933 302.595 334.037 304.17C331.888 305.34 331.708 307.127 333.561 308.601C334.561 309.396 335.562 310.19 336.584 310.955C340.93 314.211 345.747 316.509 351.01 317.811C352.999 318.303 355.052 318.649 357.093 318.776C358.142 318.842 359.229 318.281 360.466 317.836" fill="white"/>
<path fill-rule="evenodd" clip-rule="evenodd" d="M375.152 224.43C370.652 224.315 343.983 244.5 343.388 244.16C342.793 243.819 368.791 224.183 372.563 221.561C374.52 220.201 376.55 220.274 378.604 221.724C381.467 223.746 399.196 235.01 401.583 236.134C404.328 237.425 420.674 241.195 419.825 242.236C419.342 242.511 416.927 242.727 416.194 242.63C415.983 242.602 415.561 242.791 415.537 242.932C414.802 247.311 416.036 282.718 416.207 284.501C416.239 284.832 416.576 285.225 416.88 285.422C418.121 286.228 419.49 286.137 420.91 286.192L421.147 286.203C423.646 286.333 425.909 285.809 428.021 284.713C430.779 283.284 433.415 281.619 436.087 280.029C438.899 278.357 441.676 276.626 444.497 274.97C448.4 272.68 452.656 271.167 456.883 269.644C459.444 268.72 462.166 268.214 464.842 267.644C467.159 267.15 469.513 266.829 471.852 266.434L471.906 266.429L474.198 266.486C473.865 265.79 473.562 265.078 473.193 264.402C471.909 262.052 470.542 259.745 469.321 257.363C467.883 254.556 466.673 251.63 465.174 248.858C461.805 242.631 458.349 236.45 454.874 230.282C451.571 224.42 448.201 218.595 444.851 212.759C444.411 211.992 443.904 211.263 443.456 210.5C443.342 210.306 443.337 210.048 443.282 209.818C443.479 209.967 443.726 210.078 443.864 210.269C445.526 212.578 447.26 214.842 448.806 217.226C453.176 223.963 457.551 230.7 461.757 237.54C463.972 241.141 465.847 244.952 467.86 248.677C469.254 251.254 470.654 253.828 471.988 256.436C472.671 257.771 473.213 259.177 473.819 260.551L474.804 262.8C475.298 263.925 475.8 265.045 476.34 266.146C476.456 266.382 477.211 266.537 477.534 266.403C481.161 264.894 484.908 263.586 488.336 261.704C493.795 258.708 498.961 255.181 504.405 252.155C506.909 250.763 509.711 249.747 512.502 249.089C514.418 248.637 516.394 248.3 518.616 248.818C522.22 249.659 525.504 251.227 528.981 252.298C531.339 253.024 533.784 253.108 536.333 252.912C541.224 252.536 544.954 249.675 549.095 247.69C551.837 246.376 554.485 244.864 557.165 243.422C563.127 240.215 569.075 236.981 575.043 233.786C578.642 231.859 582.268 229.984 585.881 228.086C586.246 227.894 586.596 227.657 586.982 227.525L587.374 227.391C587.722 227.277 588.092 227.183 588.217 227.306L588.35 227.442C588.976 228.1 589.307 228.803 588.04 229.436C585.229 230.844 582.458 232.334 579.682 233.812C576.076 235.732 572.487 237.685 568.88 239.603C565.412 241.447 561.924 243.251 558.456 245.095C554.804 247.038 551.17 249.016 547.519 250.961C545.198 252.197 542.977 253.859 540.498 254.486C538.244 255.055 535.968 256.144 533.353 255.328L533.082 255.236C529.864 254.078 526.37 253.708 523.098 252.675C520.493 251.852 517.851 251.29 515.202 251.5C512.146 251.743 509.036 252.234 506.124 253.164C501.44 254.66 497.48 257.564 493.583 260.524L492.436 261.392C489.118 263.893 485.717 266.281 481.614 267.438C480.556 267.736 479.508 268.077 478.477 268.457C478.398 268.486 466.877 268.83 454.458 273.134C442.669 277.221 429.947 285.279 429.98 285.361C430.843 287.527 486.605 283.646 487.931 283.764C489.569 283.909 491.211 284.005 492.852 284.1C493.461 284.135 494.076 284.075 494.685 284.111C496.271 284.205 497.854 284.339 499.44 284.433C500.049 284.469 500.664 284.409 501.273 284.444C502.914 284.539 504.553 284.672 506.194 284.767C506.804 284.802 507.419 284.742 508.028 284.778C509.613 284.872 511.197 285.004 512.782 285.1C513.336 285.134 513.895 285.079 514.449 285.111C516.091 285.205 517.731 285.331 519.373 285.427C519.926 285.459 520.484 285.412 521.037 285.444C522.734 285.542 524.428 285.67 526.125 285.768C526.679 285.799 527.238 285.745 527.792 285.778C529.433 285.873 531.073 286.001 532.715 286.097C533.268 286.129 533.826 286.079 534.38 286.111C536.076 286.209 537.771 286.337 539.468 286.434C540.022 286.466 540.579 286.439 541.135 286.439C542.543 286.439 543.953 286.405 545.359 286.454C546.039 286.479 546.709 286.709 547.39 286.764C549.139 286.903 550.892 287.002 552.644 287.102C553.142 287.13 553.645 287.082 554.144 287.111C555.84 287.21 557.535 287.336 559.231 287.435C559.605 287.457 559.981 287.449 560.356 287.443L560.732 287.44C562.085 287.44 563.442 287.369 564.789 287.455C567.498 287.627 570.199 287.918 572.908 288.097C575.323 288.256 577.744 288.322 580.162 288.442C582.192 288.543 584.22 288.671 586.25 288.772L589.152 288.92C590.602 288.993 592.053 289.059 593.505 289.097C596.221 289.169 598.94 289.159 601.657 289.205C601.816 289.208 602.098 289.381 602.109 289.495C602.183 290.309 602.202 291.128 602.239 291.945C601.808 291.888 601.377 291.801 600.944 291.78C598.507 291.658 596.066 291.602 593.633 291.426C591.589 291.278 589.559 290.906 587.514 290.799C585.37 290.688 583.216 290.793 581.066 290.759C580.61 290.752 580.163 290.498 579.703 290.45L576.727 290.126C575.403 289.986 574.079 289.861 572.752 289.799C570.385 289.687 568.008 289.811 565.637 289.755C564.748 289.734 563.867 289.455 562.975 289.367C562.268 289.297 561.549 289.365 560.838 289.324C560.064 289.28 559.293 289.177 558.52 289.108C555.981 288.883 553.446 288.569 550.902 288.465C548.145 288.354 545.38 288.48 542.62 288.421C541.509 288.397 540.404 288.15 539.295 288.016C538.551 287.925 537.807 287.835 537.06 287.777C535.476 287.654 533.892 287.541 532.306 287.445C531.752 287.412 531.193 287.465 530.639 287.435C528.832 287.336 527.026 287.175 525.218 287.124C524.308 287.099 523.392 287.34 522.481 287.323C520.989 287.297 519.5 287.137 518.008 287.075C517.035 287.035 516.057 287.113 515.085 287.058C513.37 286.962 511.66 286.776 509.944 286.684C508.901 286.628 507.851 286.697 506.806 286.67C506.02 286.651 505.235 286.519 504.452 286.533C503.959 286.542 503.47 286.729 502.979 286.835C503.257 287.071 503.53 287.312 503.812 287.542C506.843 290.019 509.849 292.526 512.913 294.961C516.372 297.712 519.903 300.373 523.365 303.12C526.387 305.517 529.354 307.985 532.353 310.411C533.347 311.214 534.367 311.986 535.376 312.771C535.992 313.249 535.908 313.504 535.252 313.76L535.154 313.796C532.932 314.599 530.775 315.608 528.514 316.265C526.506 316.849 524.388 317.047 522.327 317.457C520.5 317.819 518.697 318.309 516.861 318.606C515.699 318.795 514.495 318.708 513.313 318.791C512.226 318.868 511.137 318.964 510.061 319.127C508.431 319.375 506.82 319.763 505.185 319.95C503.79 320.109 502.371 320.042 500.966 320.126C499.768 320.197 498.568 320.295 497.38 320.462C495.64 320.707 493.919 321.104 492.174 321.29C490.667 321.45 489.133 321.35 487.619 321.467C486.007 321.591 484.407 321.875 482.795 322.014C480.652 322.198 478.502 322.294 476.358 322.462C475.787 322.507 475.23 322.743 474.66 322.774C472.113 322.912 469.563 322.99 467.016 323.129C466.169 323.175 465.332 323.387 464.485 323.443C462.402 323.582 460.318 323.729 458.231 323.776C451.979 323.915 445.726 324.053 439.473 324.098C436.852 324.116 434.224 323.738 431.61 323.834C429.329 323.917 427.112 323.846 424.844 323.517C422.738 323.212 420.547 323.558 418.406 323.419C416.656 323.306 414.929 322.877 413.185 322.634C411.109 322.346 409.023 322.127 406.948 321.826C406.686 321.787 406.227 321.342 406.265 321.243L406.61 320.365C407.711 317.588 408.924 314.878 410.889 312.534C413.311 309.645 416.186 307.366 419.423 305.514L419.866 305.264C421.055 304.604 422.229 303.905 423.466 303.35L425.323 302.511C426.77 301.862 428.23 301.239 429.737 300.782C432.161 300.046 434.691 299.663 437.171 299.106C438.575 298.791 439.957 298.371 441.37 298.111C443.467 297.725 445.588 297.471 447.688 297.099C449.265 296.82 450.835 296.486 452.389 296.099C454.45 295.586 456.508 295.052 458.538 294.431C462.781 293.133 466.939 291.63 470.545 288.931C470.735 288.789 470.958 288.692 471.165 288.574C470.896 288.418 470.643 288.209 470.353 288.123C470.098 288.046 469.802 288.107 469.524 288.107L466.079 288.11C465.504 288.11 464.93 288.109 464.356 288.105L436.499 287.934C427.213 287.878 417.928 287.827 408.642 287.791C404.854 287.777 401.065 288.094 397.277 288.083C392.098 288.068 386.92 287.897 381.743 287.769C378.176 287.681 374.611 287.498 371.044 287.462C369.257 287.445 367.467 287.77 365.68 287.751C361.669 287.71 357.658 287.565 353.648 287.435C351.025 287.35 348.405 287.142 345.783 287.13C343.718 287.122 341.652 287.406 339.586 287.416C337.909 287.424 336.232 287.147 334.556 287.164C334.207 287.168 333.487 288.08 333.579 288.286C334.692 290.764 333.331 292.748 332.133 294.538C329.767 298.071 326.376 300.31 322.259 301.542C319.886 302.253 317.582 303.202 315.27 304.112L314.402 304.451C309.953 306.172 306.395 308.85 305.086 313.697C304.425 316.149 304.025 318.585 304.397 321.241C305.219 327.1 308.097 331.774 311.905 336.01L312.186 336.319C314.264 338.592 316.288 340.941 318.572 342.994C323.232 347.185 327.934 351.347 332.839 355.244C337.634 359.053 342.589 362.688 347.687 366.08C352.082 369.003 356.746 371.529 361.348 374.129C364.308 375.802 367.331 377.376 370.4 378.838C372.978 380.066 375.676 381.038 378.296 382.18C380.612 383.19 382.851 384.388 385.202 385.304C388.451 386.57 391.753 387.71 395.07 388.79C398.066 389.765 401.092 390.661 404.14 391.453C406.749 392.131 409.417 392.576 412.044 393.188C415.435 393.978 418.8 394.885 422.198 395.641C424.777 396.214 427.384 396.668 429.99 397.106C432.342 397.501 434.706 397.831 437.071 398.136C439.124 398.401 441.182 398.63 443.245 398.8C445.233 398.965 447.233 398.992 449.221 399.157C451.264 399.326 453.296 399.632 455.34 399.794C456.308 399.87 457.292 399.721 458.268 399.726C460.442 399.738 462.617 399.749 464.789 399.824C466.134 399.871 467.475 400.115 468.819 400.13C472.598 400.174 476.377 400.146 480.156 400.146C482.009 400.146 483.867 400.232 485.714 400.122C487.74 400.002 489.799 399.334 491.763 399.573C494.157 399.863 496.395 399.512 498.7 399.172C499.752 399.016 500.854 399.229 501.919 399.129C504.991 398.841 508.051 398.409 511.126 398.166C513.796 397.954 516.485 397.976 519.159 397.789C520.539 397.693 521.899 397.324 523.277 397.157C524.652 396.99 526.044 396.967 527.419 396.799C528.868 396.621 530.319 396.41 531.745 396.102C534.577 395.489 537.416 394.886 540.207 394.115C542.25 393.551 544.22 392.723 546.226 392.026C546.351 391.983 546.594 392.014 546.647 392.097C546.716 392.205 546.716 392.463 546.634 392.547C545.43 393.779 544.276 395.076 542.955 396.169C542.558 396.497 541.937 396.591 541.337 396.654L540.808 396.708C539.092 396.896 537.351 396.904 535.649 397.172C533.922 397.445 532.246 398.038 530.519 398.313C528.768 398.592 526.982 398.644 525.213 398.816C524.348 398.901 523.485 399.015 522.626 399.149C520.557 399.471 518.498 399.869 516.421 400.13C514.131 400.419 511.823 400.575 509.526 400.818C508.187 400.961 506.858 401.209 505.517 401.327C503.269 401.524 501.015 401.64 498.765 401.822C498.14 401.873 497.527 402.078 496.901 402.139L494.42 402.383C492.765 402.544 491.109 402.695 489.451 402.794C487.771 402.894 486.078 402.777 484.393 402.821C481.16 402.905 477.927 403.128 474.695 403.122C470.998 403.116 467.299 402.976 463.606 402.796C460.785 402.659 457.975 402.309 455.154 402.166C453.12 402.064 451.072 402.231 449.04 402.12C447.383 402.028 445.742 401.667 444.088 401.49C442.6 401.33 441.102 401.272 439.612 401.14C438.691 401.059 437.768 400.968 436.86 400.801C435.768 400.601 434.693 400.305 433.607 400.072C432.617 399.86 431.624 399.652 430.626 399.484C428.802 399.176 426.977 398.87 425.145 398.619C423.659 398.416 422.149 398.37 420.674 398.112C419.438 397.896 418.239 397.472 417.022 397.145L411.248 395.595C410.285 395.338 409.322 395.083 408.358 394.831C405.68 394.131 402.958 393.573 400.317 392.753C396.419 391.544 392.576 390.158 388.709 388.849C385.686 387.825 382.63 386.887 379.648 385.755L378.348 385.259C376.181 384.424 374.023 383.538 372.002 382.423L365.129 378.645C359.403 375.491 353.699 372.296 348.158 368.843C342.305 365.196 336.865 360.876 331.307 356.766C325.166 352.226 319.8 346.812 314.548 341.309L313.743 340.459C310.003 336.478 306.512 332.266 304.178 327.255L303.932 326.715C303.093 324.824 301.964 322.835 301.916 320.867C301.808 316.463 302.626 312.222 305.922 308.773C308.534 306.039 311.7 304.239 314.948 302.541L317.073 301.439C320.88 299.464 324.721 297.543 328.425 295.389C329.74 294.624 330.89 293.375 331.763 292.104C332.719 290.713 331.892 288.847 330.208 288.476C327.315 287.837 324.39 287.259 321.447 286.951C317.387 286.526 313.3 286.36 309.222 286.131C308.868 286.111 308.314 286.347 308.157 286.632C305.986 290.573 302.584 293.021 298.44 294.406C295.229 295.479 291.888 296.155 288.641 297.131C286.214 297.861 283.887 298.947 281.44 299.586C278.161 300.442 275.299 302.118 272.769 304.173L272.045 304.77C268.931 307.381 266.149 310.356 265.371 314.689C264.791 317.919 264.953 320.977 265.919 324.201C267.32 328.878 270.204 332.417 273.375 335.847C274.958 337.559 276.642 339.181 278.319 340.805C283.498 345.823 289.1 350.312 294.962 354.525C301.871 359.491 309.166 363.733 316.718 367.624L318.497 368.533C322.852 370.749 327.232 372.962 331.052 376.119C334.116 378.653 336.899 381.435 338.734 384.962L339.337 386.126C340.292 387.998 341.193 389.988 341.247 391.931L341.278 393.054C341.317 394.82 341.287 396.67 340.742 398.533C338.842 405.034 334.614 409.794 329.883 414.175C325.035 418.665 319.618 422.446 313.818 425.655C311.456 426.962 309.191 428.462 306.768 429.64C304.449 430.768 301.971 431.563 299.584 432.554C296.849 433.69 294.187 435.026 291.401 436.012C287.451 437.409 283.412 438.555 279.418 439.83C276.867 440.645 274.35 441.577 271.778 442.319C268.623 443.23 265.419 443.968 262.252 444.838C260.179 445.408 258.153 446.153 256.072 446.689C253.465 447.361 250.816 447.869 248.198 448.504C245.678 449.116 243.189 449.862 240.661 450.434C237.462 451.157 234.241 451.781 231.023 452.415C228.155 452.979 225.28 453.511 222.404 454.033C219.849 454.498 217.287 454.929 214.729 455.379C214.04 455.501 213.35 455.748 212.669 455.721C212.379 455.71 212.135 455.116 211.824 454.838C211.385 454.445 210.904 454.098 210.44 453.732C211.081 453.654 211.73 453.619 212.36 453.489C214.456 453.057 216.538 452.552 218.64 452.146C221.103 451.669 223.59 451.313 226.049 450.814C227.828 450.452 229.566 449.889 231.342 449.509C233.669 449.012 236.027 448.663 238.348 448.144C240.044 447.764 241.693 447.175 243.38 446.748C244.614 446.437 245.893 446.299 247.122 445.975C249.171 445.435 251.184 444.757 253.236 444.231C255.289 443.704 257.385 443.345 259.436 442.812C261.586 442.253 263.692 441.528 265.84 440.962C268.303 440.312 270.808 439.813 273.263 439.137C274.712 438.738 276.082 438.059 277.522 437.619C279.995 436.863 282.529 436.298 284.975 435.467C288.526 434.26 292.027 432.9 295.539 431.581L297.929 430.684C299.52 430.083 301.108 429.471 302.676 428.812C310.337 425.591 317.603 421.669 324.06 416.383L325.592 415.127C327.633 413.446 329.653 411.735 331.521 409.877C334.219 407.193 336.558 404.145 337.875 400.527C338.646 398.406 339.323 396.129 339.38 393.905C339.434 391.826 338.837 389.743 338.026 387.652C336.858 384.637 335.125 382.179 332.726 380.326C329.468 377.81 325.937 375.622 322.403 373.492C314.498 368.729 306.34 364.361 298.63 359.305C293.445 355.905 288.708 351.806 283.898 347.851L282.995 347.111C279.839 344.536 276.729 341.867 273.878 338.965C269.938 334.955 266.204 330.781 264.054 325.382C262.99 322.709 262.643 320.123 262.76 317.311C263.021 311.091 266.555 306.893 270.965 303.061C275.16 299.417 280.113 297.383 285.303 295.793C288.503 294.813 291.766 294.037 294.979 293.096C297.751 292.285 300.527 291.461 303.227 290.444C304.064 290.129 304.999 289.285 305.29 288.469C305.898 286.769 304.946 285.947 303.101 285.942C301.58 285.937 300.063 285.576 298.538 285.45C296.66 285.294 294.769 285.281 292.896 285.087C291.199 284.91 289.528 284.492 287.831 284.327C286.107 284.16 284.366 284.181 282.633 284.096C282.329 284.081 282.035 283.902 281.729 283.878C279.696 283.719 277.656 283.63 275.627 283.424C273.816 283.241 272.021 282.881 270.209 282.705C268.546 282.543 266.869 282.523 265.198 282.437C264.985 282.426 264.772 282.392 264.559 282.372C262.436 282.171 260.309 282.011 258.193 281.759C256.39 281.545 254.607 281.155 252.802 280.975C251.187 280.813 249.555 280.836 247.931 280.766C247.67 280.755 247.413 280.662 247.152 280.64C245.021 280.457 242.885 280.312 240.757 280.094C239.047 279.919 237.35 279.616 235.639 279.449C233.93 279.283 232.209 279.231 230.497 279.092C230.092 279.059 229.704 278.81 229.299 278.782C227.308 278.645 225.307 278.618 223.324 278.416C221.576 278.238 219.854 277.802 218.106 277.625C216.49 277.462 214.854 277.508 213.228 277.423C212.881 277.404 212.547 277.139 212.198 277.115C210.151 276.979 208.101 276.894 206.054 276.761C205.438 276.721 204.83 276.556 204.213 276.517C204.085 276.509 203.938 276.807 203.799 276.964L204.094 277.061C204.143 277.076 204.192 277.09 204.243 277.101C205.959 277.478 207.691 277.796 209.39 278.238C211.409 278.763 213.432 279.3 215.397 279.993C222.338 282.441 228.881 285.65 233.581 291.523C235.358 293.745 236.504 296.506 237.742 299.114C238.391 300.481 238.874 302.032 238.971 303.53C239.123 305.87 238.89 308.235 238.806 310.589C238.752 312.094 238.753 313.608 238.58 315.1C238.414 316.544 238.075 317.969 237.779 319.396L236.969 323.329C236.562 325.295 236.146 327.259 235.695 329.215C235.34 330.753 234.723 332.229 234.331 333.76C233.931 335.326 233.707 336.936 233.32 338.506C232.873 340.318 232.31 342.102 231.839 343.91C231.322 345.892 230.897 347.899 230.349 349.873L230.025 351.029C229.696 352.185 229.344 353.336 228.903 354.447L228.675 354.999C228.36 355.731 228.48 355.761 228.988 355.795L229.152 355.806C232.182 356.023 235.233 356.114 238.229 356.562C240.455 356.896 242.611 357.701 244.794 358.309C246.538 358.795 248.277 359.3 250.017 359.8C250.165 359.842 250.306 359.907 250.45 359.961C250.31 360.018 250.17 360.123 250.029 360.124C248.657 360.137 247.272 360.251 245.916 360.105C243.69 359.866 241.461 359.56 239.277 359.081C237.712 358.739 236.239 357.994 234.686 357.576C233.945 357.376 233.1 357.423 232.323 357.523L231.224 357.663C229.941 357.829 228.657 358.016 227.422 358.364C225.392 358.937 224.404 360.64 223.504 362.334L223.205 362.897C220.635 367.727 218.162 372.609 215.619 377.454C212.763 382.895 209.871 388.318 206.999 393.752L206.767 394.203C205.745 396.25 204.947 398.469 202.756 399.641C202.293 399.888 201.632 399.765 201.063 399.812C201.116 399.384 201.045 398.885 201.241 398.538C203.332 394.842 205.472 391.174 207.586 387.492C209.52 384.126 211.522 380.795 213.345 377.371C216.13 372.142 218.908 366.903 221.46 361.559C223.421 357.451 225.069 353.192 226.78 348.969L227.854 346.321C229.107 343.23 230.341 340.13 231.406 336.974C232.634 333.335 233.535 329.582 234.523 325.865C235.111 323.652 235.78 321.435 236.073 319.177L236.269 317.659C236.693 314.367 237.078 311.051 237.017 307.756C236.963 304.882 236.389 301.879 235.37 299.191C233.172 293.395 229.104 288.99 223.807 285.787C220.319 283.678 216.674 281.922 212.628 281.059C210.364 280.577 208.198 279.642 205.936 279.149C204.032 278.734 202.055 278.503 200.107 278.475C197.357 278.436 194.605 278.69 191.852 278.76C189.814 278.812 187.77 278.693 185.737 278.799C184.524 278.863 183.325 279.215 182.12 279.437C180.312 279.771 178.479 280.008 176.699 280.457C173.002 281.391 169.246 282.196 165.669 283.486C156.475 286.801 147.851 291.313 139.837 296.903C134.408 300.69 129.339 304.957 124.863 309.856C120.049 315.124 115.913 320.885 113.101 327.485C112.008 330.05 111.14 332.723 110.338 335.397C109.769 337.293 109.244 339.26 109.132 341.22C108.992 343.679 109.312 346.163 109.398 348.638C109.441 349.897 109.319 351.167 109.43 352.418C109.536 353.597 109.761 354.783 110.093 355.92C110.565 357.531 111.166 359.105 111.742 360.684C114.919 369.384 120.356 376.152 128.765 380.278C130.669 381.213 132.729 381.897 134.788 382.422C136.176 382.776 137.432 382.375 138.261 380.839C141.526 374.788 145.811 369.576 151.626 365.802C154.578 363.887 157.686 362.209 160.751 360.473C163.307 359.027 166.096 358.279 168.979 357.775C170.749 357.465 172.461 356.702 174.232 356.558C176.236 356.395 178.277 356.698 180.301 356.796L180.801 356.798C183.887 356.908 186.979 357.202 190.055 357.077C192.856 356.963 195.56 356.433 198.274 355.287C202.188 353.635 204.168 350.832 205.167 347.044L205.792 344.576C206.159 343.115 206.506 341.65 206.728 340.168C206.97 338.558 206.64 336.865 206.857 335.249C207.161 332.991 207.597 330.728 208.239 328.544C208.724 326.891 209.539 325.338 210.214 323.738L210.434 323.203C211.818 319.712 214.204 316.89 216.809 314.339C219.889 311.321 223.403 308.814 227.596 307.435C229.238 306.895 230.828 306.197 232.462 305.631C232.71 305.545 233.069 305.786 233.377 305.875L233.016 306.114C232.955 306.153 232.894 306.191 232.832 306.227L231.727 306.871C226.024 310.203 220.415 313.674 216.02 318.741L215.58 319.25C213.903 321.207 212.322 323.244 211.681 325.885C211.244 327.687 210.249 329.372 209.949 331.184C209.552 333.584 209.603 336.056 209.429 338.495C209.392 339.01 209.179 339.51 209.113 340.026C208.857 342.019 208.917 344.106 208.329 345.992C207.073 350.02 204.973 353.614 201.149 355.765C199.082 356.927 196.909 358.074 194.637 358.649C192.607 359.163 190.412 359.093 188.272 359.109L187.815 359.114C183.684 359.175 179.552 359.099 175.421 359.14C170.045 359.193 164.748 359.974 159.874 362.258C154.19 364.921 149.125 368.497 145.145 373.517C142.557 376.781 140.213 380.147 138.966 384.137C138.443 385.81 137.051 385.478 136.196 385.324L135.315 385.162C133.254 384.771 131.167 384.271 129.327 383.353C126.377 381.881 123.488 380.132 120.93 378.06C116.479 374.457 112.808 370.065 110.589 364.736C109.151 361.283 107.957 357.662 107.232 354.002C106.729 351.465 107.15 348.758 107.062 346.124L107.037 345.598C106.877 343.023 107.305 340.567 107.919 338.115L108.037 337.655C108.849 334.523 109.346 331.27 110.524 328.285C111.61 325.534 113.251 322.997 114.761 320.42L115.083 319.868C118.182 314.486 122.14 309.757 126.593 305.474C132.357 299.931 138.762 295.195 145.642 291.114L148.446 289.445C150.319 288.336 152.204 287.25 154.143 286.274C156.339 285.169 158.658 284.304 160.959 283.414L161.725 283.116C163.719 282.335 165.732 281.589 167.774 280.943C170.598 280.05 173.447 279.23 176.306 278.449C178.312 277.901 180.333 277.361 182.381 277.019C184.871 276.603 187.402 276.434 189.906 276.092C191.952 275.812 193.985 275.438 196.023 275.097C196.162 275.074 196.289 274.982 196.422 274.922C196.276 274.871 196.127 274.767 195.986 274.777C194.586 274.875 193.185 275.109 191.789 275.076C189.46 275.021 187.135 274.804 184.809 274.64C184.335 274.607 183.867 274.448 183.395 274.445C180.82 274.425 178.243 274.474 175.669 274.421C174.157 274.39 172.65 274.148 171.138 274.116C168.62 274.063 166.098 274.141 163.579 274.087C162.068 274.055 160.56 273.816 159.049 273.783C157.078 273.74 155.106 273.756 153.135 273.765L151.656 273.768C149.192 273.768 146.723 273.854 144.264 273.742C142.183 273.647 140.117 273.233 138.035 273.134C136.7 273.071 135.348 273.437 134.008 273.41C131.617 273.363 129.23 273.129 126.839 273.043C125.422 272.992 123.998 273.14 122.582 273.081C120.2 272.982 117.821 272.795 115.442 272.63C114.967 272.598 114.497 272.447 114.024 272.444C111.115 272.426 108.206 272.471 105.298 272.42C103.786 272.393 102.279 272.147 100.767 272.116C98.1926 272.063 95.6163 272.101 93.0408 272.101L87.7787 272.101C86.9017 272.102 86.0247 272.105 85.1477 272.109C84.9002 272.11 84.6532 272.219 84.406 272.277L84.8662 272.509C84.9424 272.549 85.018 272.59 85.0923 272.632C90.4205 275.702 95.2553 279.404 99.4033 283.956C102.179 287.002 104.717 290.237 106.235 294.126C106.946 295.947 107.65 297.793 108.086 299.69C108.35 300.839 107.98 302.118 108.099 303.319C108.257 304.905 107.964 306.388 107.395 307.824C105.641 312.253 102.661 315.615 98.616 318.145C95.8807 319.856 93.0153 321.197 89.866 321.774C87.4069 322.225 84.8933 322.464 82.3937 322.584C80.1633 322.691 77.9053 322.64 75.685 322.411C73.7882 322.216 71.9357 321.623 70.0487 321.29C68.0297 320.934 65.986 320.718 63.9672 320.361C62.6741 320.133 61.4167 319.705 60.1254 319.462C57.4133 318.952 54.6812 318.546 51.9738 318.014C50.6446 317.753 49.3565 317.288 48.0413 316.949L47.374 316.776C46.9276 316.662 46.4781 316.558 46.0266 316.504L45.6875 316.472C44.5881 316.404 43.9354 315.462 44.4013 314.413C44.4235 314.363 44.7249 314.411 44.8855 314.453C46.2544 314.814 47.6177 315.197 48.9886 315.551L52.3329 316.413C53.4485 316.697 54.5654 316.976 55.6857 317.24C58.461 317.894 61.2404 318.537 64.0346 319.103C65.7145 319.443 67.4094 319.718 69.1071 319.963L71.4573 320.293C73.012 320.509 74.5715 320.709 76.1322 320.748C78.2685 320.801 80.4111 320.53 82.5529 320.462C84.201 320.409 85.8575 320.532 87.5 320.423C88.6039 320.349 89.7396 320.141 90.7741 319.758C93.2532 318.84 95.7188 317.866 98.1199 316.762C101.044 315.418 103.193 313.044 105.219 310.666C105.93 309.832 105.949 308.294 105.974 307.071C105.98 306.764 104.823 306.301 104.145 306.136C101.189 305.413 98.1916 304.852 95.2501 304.077C92.9132 303.461 90.6473 302.581 88.328 301.892C86.6129 301.382 84.8504 301.032 83.1308 300.536C80.5472 299.79 79.0113 297.611 79.2121 295.098C79.215 295.062 79.0986 295.011 79.1052 294.982C79.4939 293.293 78.7113 292.893 76.6556 293.294C74.8293 293.65 72.928 293.612 71.0631 293.783C70.0939 293.871 69.12 293.98 68.1686 294.178C65.8711 294.655 63.6023 295.492 61.2906 295.621C58.8071 295.76 56.2895 295.176 54.2794 293.479C52.2031 291.727 50.1995 289.887 48.1824 288.065C46.6797 286.708 45.2036 285.321 43.7223 283.94C43.4916 283.725 43.2968 283.471 43.0853 283.235C43.4974 283.227 44.0447 283.043 44.2996 283.239C46.029 284.569 47.8942 285.801 49.3378 287.405L50.405 288.592C52.1923 290.558 54.0662 292.402 56.677 293.136C58.7492 293.719 61.0287 293.787 63.2037 293.718C65.2622 293.653 67.3227 293.188 69.3496 292.748C70.6275 292.471 71.9025 292.087 73.1151 291.589L73.5667 291.397C75.8822 290.379 78.5165 290.557 80.3221 292.294L80.9384 292.919C81.5361 293.536 82.1275 294.266 81.9423 295.288L81.9065 295.452C81.8389 295.716 81.8703 296.03 81.7379 296.249L81.4042 296.81C80.8456 297.783 80.963 297.927 82.2027 298.316L82.6087 298.442C85.1755 299.228 87.7278 300.07 90.3207 300.759C93.1568 301.513 96.0479 302.059 98.8848 302.81C100.89 303.341 102.848 304.051 104.82 304.702C105.633 304.971 106.657 304.021 106.724 302.791C106.788 301.589 106.96 300.328 106.684 299.189C106.293 297.571 105.763 295.901 104.895 294.498C101.207 288.534 96.9332 282.995 91.7028 278.3C88.4603 275.39 78.6955 270 71.037 268.391C63.3784 266.782 51.3358 267.69 48.9886 269.056C46.6413 270.422 43.1167 271.995 41.551 272.41C41.4158 272.446 41.1049 272.278 41.0653 272.147C40.6189 270.67 41.7086 269.976 42.6974 269.464C45.0311 268.257 47.4223 267.15 49.8381 266.114C53.0223 264.749 56.4888 264.572 59.8554 264.192C61.6843 263.985 63.6283 264.697 65.5072 265.062C67.3624 265.423 69.2249 265.786 71.037 266.311C72.0141 266.594 72.8957 267.212 73.8148 267.69C77.4651 269.588 80.9827 269.505 84.4961 267.227C85.6068 266.507 87.0497 266.322 88.2527 265.718C93.5153 263.073 98.7504 260.373 103.986 257.676C109.087 255.048 114.176 252.399 119.272 249.761C119.92 249.426 120.59 249.129 121.212 248.752C121.314 248.689 121.32 248.179 121.204 248.087C118.779 246.181 116.358 244.269 113.881 242.432C108.914 238.747 103.841 235.2 98.9566 231.409C96.2916 229.34 93.7798 227.025 91.4524 224.58C86.3273 219.197 81.4616 213.564 76.3032 208.214C71.7828 203.525 67.052 199.033 62.2806 194.598C61.7589 194.114 59.9631 194.164 59.4267 194.672C56.8428 197.119 54.4863 199.807 52.0545 202.414C51.7994 202.687 51.6002 203.015 51.3358 203.277C51.1824 203.43 50.9507 203.504 50.7542 203.613C50.7422 203.396 50.6839 203.169 50.7255 202.963C51.0456 201.376 51.0769 199.629 51.8055 198.254C52.529 196.888 57.8362 191.354 60.52 191.354C63.2037 191.354 87.1107 216.36 87.1107 216.36C90.7391 220.308 94.3987 224.227 98.2205 227.979C104.126 233.776 110.441 239.149 117.309 243.819C120.528 246.008 124.126 247.055 127.984 246.701C129.826 246.533 131.586 245.594 133.43 245.294C135.202 245.006 137.034 245.105 138.839 245.013C141.124 244.895 143.271 245.523 145.462 246.056C148.105 246.699 150.617 247.611 153.08 248.747C159.309 251.619 164.636 255.876 170.251 259.706C174.727 262.758 179.283 265.724 183.995 268.391C186.614 269.873 189.567 270.856 192.473 271.709C194.95 272.437 197.577 272.647 200.134 273.107C200.919 273.249 201.687 273.489 202.473 273.63L205.128 274.105C206.456 274.34 207.786 274.566 209.121 274.757C211.811 275.141 214.513 275.446 217.213 275.766C220.131 276.112 223.052 276.441 225.973 276.768C228.03 276.998 230.089 277.212 232.146 277.437C234.149 277.656 236.146 277.949 238.154 278.086C240.773 278.266 243.403 278.271 246.021 278.457C247.568 278.567 249.094 278.945 250.64 279.087C252.571 279.266 254.514 279.311 256.449 279.449C256.854 279.478 257.243 279.733 257.647 279.758C259.804 279.895 261.974 279.905 264.121 280.13C266.074 280.335 267.993 280.889 269.946 281.051C271.969 281.218 274.016 281.081 276.052 281.119C276.452 281.127 276.845 281.404 277.249 281.425C279.796 281.561 282.345 281.648 284.893 281.784C285.296 281.805 285.684 282.049 286.09 282.095C288.238 282.337 290.384 282.64 292.54 282.747C294.796 282.858 297.061 282.752 299.322 282.787C299.833 282.795 300.336 283.045 300.852 283.096C303.278 283.338 305.703 283.647 308.136 283.746C310.892 283.858 313.658 283.749 316.418 283.787C317.152 283.797 317.879 284.037 318.615 284.098L322.127 284.388C323.883 284.53 325.64 284.661 327.399 284.754C329.247 284.851 331.105 284.734 332.957 284.781C336.099 284.861 339.238 285.02 342.38 285.096C344.398 285.146 346.422 285.159 348.436 285.057C348.804 285.039 349.425 284.395 349.435 284.027C349.467 282.854 350.249 245.465 350.171 244.342C350.157 244.137 350.351 243.918 350.449 243.705C350.573 243.891 350.791 244.069 350.808 244.264C350.945 245.866 351.712 281.846 351.716 284.754C351.716 284.871 352.336 285.101 352.658 285.086C354.059 285.02 396.559 285.285 398.55 285.151C399.341 285.097 399.947 284.865 399.856 283.819C399.686 281.869 399.833 238.179 399.833 238.179C399.833 238.179 381.055 224.58 375.152 224.43ZM484.151 286.507C482.082 286.774 480.103 287.844 478.039 288.019C475.378 288.244 473.236 289.612 470.939 290.599C467.288 292.167 463.808 294.129 460.171 295.733C458.578 296.435 456.77 296.641 455.073 297.121C454.317 297.334 452.432 297.777 452.332 297.793L450.09 298.165C448.97 298.354 447.851 298.553 446.741 298.788C443.972 299.376 441.213 300.018 438.461 300.678C436.186 301.223 433.93 301.848 431.656 302.391L430.289 302.706C426.174 303.614 422.336 305.204 418.821 307.472C414.805 310.064 411.282 313.196 409.159 317.628C408.369 319.278 408.789 320.237 410.434 320.453C410.924 320.517 411.411 320.604 411.9 320.673C412.969 320.824 414.034 321.017 415.108 321.108C416.875 321.258 418.648 321.334 420.417 321.454C421.928 321.556 423.435 321.725 424.947 321.772C426.743 321.828 428.542 321.751 430.338 321.792C434.182 321.88 438.025 322.063 441.869 322.096C443.878 322.113 445.888 321.832 447.899 321.8C451.196 321.746 454.494 321.828 457.791 321.772C459.576 321.742 461.36 321.677 463.144 321.603L466.712 321.447C468.741 321.359 470.773 321.271 472.798 321.107C474.896 320.936 476.988 320.685 479.08 320.443C479.54 320.39 479.985 320.157 480.444 320.13C482.768 319.993 485.095 319.909 487.42 319.772C487.823 319.748 488.215 319.477 488.616 319.466C490.207 319.423 491.812 319.564 493.386 319.398C495.009 319.227 496.589 318.652 498.211 318.481C500.485 318.242 502.784 318.262 505.065 318.076C506.577 317.953 508.076 317.66 509.582 317.452C510.653 317.304 511.736 317.222 512.796 317.016C513.914 316.798 514.997 316.384 516.119 316.203C518.669 315.793 521.234 315.468 523.794 315.118C525.539 314.88 527.297 314.721 529.027 314.408C530.204 314.195 531.348 313.789 532.492 313.423C532.579 313.396 532.656 312.886 532.559 312.8C531.433 311.795 530.292 310.805 529.118 309.856C524.583 306.192 520.026 302.555 515.495 298.886C511.828 295.918 508.311 292.745 504.492 289.989C501.637 287.928 499.178 288.306 497.747 290.473L497.359 291.056C495.925 293.177 494.383 295.122 492.092 296.405C491.879 296.524 491.748 296.788 491.579 296.984C491.849 297.137 492.139 297.447 492.385 297.416C493.477 297.278 494.551 296.948 495.643 296.881C496.198 296.848 496.793 297.197 497.33 297.456C497.394 297.487 497.309 298.116 497.128 298.329C493.579 302.504 488.909 304.903 483.802 306.531C481.687 307.205 479.477 307.571 477.334 308.165C475.664 308.628 474.055 309.318 472.376 309.738C470.479 310.213 468.538 310.519 466.609 310.86C465.305 311.09 463.983 311.219 462.68 311.457C461 311.765 459.337 312.168 457.657 312.472C456.601 312.663 455.529 312.793 454.458 312.873C452.623 313.011 450.785 313.15 448.946 313.177C446.528 313.213 444.108 313.151 441.689 313.107C441.32 313.1 440.955 312.96 440.588 312.881C441.084 312.737 441.571 312.534 442.077 312.462C442.896 312.346 443.728 312.336 444.551 312.247C445.724 312.122 446.891 311.942 448.065 311.83C449.351 311.707 450.652 311.71 451.928 311.525C453.874 311.242 455.797 310.799 457.742 310.509C459.446 310.254 461.18 310.187 462.879 309.905C464.316 309.666 465.712 309.182 467.145 308.908C468.887 308.575 470.673 308.449 472.397 308.049C474.38 307.589 476.339 306.994 478.267 306.336C480.537 305.562 482.76 304.653 485.006 303.81C487.484 302.881 489.975 301.986 492.437 301.019C492.965 300.811 493.396 300.359 493.872 300.019C493.179 299.716 492.497 299.379 491.784 299.135C491.601 299.072 491.324 299.335 491.078 299.397C490.085 299.646 489.096 300 488.088 300.074C487.195 300.139 486.174 299.945 486.231 298.679C486.253 298.176 486.475 297.356 486.802 297.242C491.331 295.658 494.488 292.457 497.124 288.638C497.293 288.393 497.115 287.54 496.944 287.49C495.882 287.175 494.785 286.905 493.683 286.818C492.262 286.706 490.824 286.819 489.396 286.763C487.643 286.694 485.859 286.287 484.151 286.507ZM401.583 238.18L401.665 239.415C401.835 242.177 402.535 279.993 402.738 282.271C402.777 282.703 403.479 283.516 403.869 283.572C405.199 283.761 413.844 285.768 413.844 282.271C413.733 277.098 413.974 241.831 413.798 241.783C412.142 241.337 401.969 238.261 401.583 238.18ZM132.386 247.363C128.726 248.411 125.095 249.647 121.596 251.143C117.582 252.859 113.695 254.887 109.807 256.884C105.266 259.216 100.787 261.668 96.2729 264.053C94.9524 264.75 93.6191 265.428 92.2647 266.056C90.0595 267.079 87.8304 268.051 85.6165 269.056C85.413 269.148 85.2469 269.323 85.0634 269.46C85.2714 269.562 85.4712 269.73 85.6886 269.757L87.5947 270C88.8657 270.16 90.1378 270.31 91.4137 270.409C92.1295 270.464 92.8697 270.132 93.5948 270.148C95.6844 270.196 97.7724 270.324 99.8601 270.438C100.611 270.479 101.359 270.578 102.109 270.639C104.045 270.796 105.979 270.998 107.919 271.088C110.302 271.198 112.689 271.212 115.241 271.434C117.362 271.323 119.487 271.074 121.603 271.136C124.293 271.214 126.973 271.625 129.663 271.737C131.166 271.799 132.686 271.408 134.19 271.46C138.435 271.608 142.673 271.996 146.917 272.066C150.591 272.126 154.269 271.807 157.946 271.783C165.502 271.733 173.059 271.748 180.615 271.783C182.348 271.791 184.079 272.001 185.812 272.086C186.013 272.096 186.225 271.894 186.432 271.791C186.296 271.672 186.174 271.53 186.022 271.438C181.277 268.544 176.524 265.661 171.781 262.763C167.749 260.3 163.794 257.7 159.701 255.348L158.332 254.573C153.972 252.151 150.157 248.66 145.084 247.597C143.101 247.182 141.113 246.531 139.119 246.501C136.873 246.467 134.543 246.745 132.386 247.363Z" fill="#00160A"/>
<path fill-rule="evenodd" clip-rule="evenodd" d="M168.509 226.835C171.068 223.276 173.403 219.688 176.051 216.35C180.293 211.003 184.707 205.792 189.12 200.584C191.271 198.047 193.546 195.611 195.833 193.194C199.019 189.826 202.107 186.341 205.528 183.225C211.041 178.202 216.766 173.408 222.45 168.575C228.882 163.106 235.948 158.522 243.187 154.229C247.122 151.896 251.291 149.944 255.422 147.962C258.39 146.539 261.458 145.319 264.505 144.066C267.498 142.835 270.487 141.58 273.542 140.518C275.949 139.681 278.436 139.049 280.919 138.459C283.547 137.833 286.208 137.335 288.864 136.835C290.989 136.435 293.123 136.076 295.264 135.773C297.308 135.484 299.362 135.245 301.42 135.066C303.388 134.896 305.366 134.729 307.339 134.744C310.461 134.767 313.583 135.035 316.704 135.023C318.97 135.014 321.193 135.011 323.472 135.266C325.741 135.52 328.026 135.788 330.305 135.98C332.6 136.174 334.824 136.521 337.068 137.008C339.115 137.453 341.291 137.312 343.327 137.787C346.237 138.466 349.062 139.503 351.94 140.328C354.926 141.184 357.969 141.857 360.918 142.824C362.959 143.493 364.86 144.578 366.865 145.375C368.998 146.224 371.247 146.805 373.321 147.771C375.835 148.942 378.226 150.382 380.657 151.729C387.025 155.256 393.184 159.105 398.9 163.631C400.706 165.061 402.48 166.532 404.262 167.992C404.518 168.203 404.823 168.421 404.953 168.705C405.182 169.203 405.294 169.756 405.455 170.286C405.029 170.047 404.551 169.87 404.186 169.56C398.672 164.872 392.586 160.999 386.447 157.221C383.6 155.468 380.576 154.002 377.604 152.459C376.027 151.639 374.422 150.855 372.774 150.192C369.176 148.744 365.548 147.372 361.923 145.993C359.282 144.989 356.652 143.945 353.969 143.063C350.992 142.086 347.982 141.19 344.946 140.414C342.297 139.737 339.606 139.192 336.907 138.753C335.2 138.475 333.431 138.592 331.714 138.359C330.313 138.169 328.963 137.567 327.562 137.427C325.873 137.26 324.155 137.413 322.45 137.372C321.938 137.36 321.432 137.075 320.921 137.069C318.012 137.038 315.103 137.087 312.195 137.039C310.906 137.018 309.617 136.723 308.332 136.749C306.836 136.779 305.348 137.062 303.851 137.165C302.178 137.28 300.496 137.274 298.825 137.402C297.591 137.496 296.359 137.676 295.14 137.896C293.379 138.215 291.637 138.64 289.875 138.953C288.544 139.19 287.18 139.252 285.856 139.521C284.229 139.851 282.618 140.276 281.021 140.732C279.053 141.294 277.112 141.945 275.15 142.529C273.449 143.036 271.683 143.367 270.039 144.014C264.751 146.095 259.433 148.124 254.263 150.474C246.751 153.889 239.632 158.06 232.849 162.756C228.586 165.708 224.468 168.872 220.342 172.017C212.078 178.317 204.782 185.683 197.603 193.145C193.936 196.957 190.581 201.08 187.212 205.167C183.784 209.324 180.436 213.552 177.194 217.855C173.958 222.15 170.816 226.521 167.783 230.962C165.107 234.879 162.642 238.94 160.068 242.929C159.952 243.11 159.686 243.195 159.489 243.324C159.523 243.135 159.513 242.922 159.598 242.759C161.318 239.469 163.004 236.16 164.795 232.909C165.921 230.866 167.21 228.913 168.509 226.835Z" fill="#00160A"/>
<path fill-rule="evenodd" clip-rule="evenodd" d="M489.871 184.737C487.775 185.627 485.878 186.598 483.909 187.388C479.932 188.982 475.992 190.654 471.833 191.798C469.177 192.529 466.572 193.226 463.808 193.459C461.871 193.623 459.982 194.588 458.058 194.631C455.391 194.692 453.199 195.747 451.109 197.105C449.163 198.369 447.409 199.926 445.505 201.26C444.821 201.74 443.97 202.108 443.149 202.238C441.93 202.43 440.67 202.354 439.429 202.413C437.251 202.515 435.075 202.718 432.898 202.72C430.719 202.722 428.54 202.529 426.362 202.425C426.03 202.409 425.694 202.379 425.367 202.416C423.53 202.626 421.669 202.727 419.867 203.109C417.609 203.588 415.395 204.281 413.174 204.923C411.175 205.501 409.102 205.936 407.223 206.788C403.662 208.402 400.216 210.27 396.72 212.026C396.466 212.154 396.185 212.227 395.917 212.326C396.061 212.129 396.178 211.904 396.353 211.741C398.027 210.181 399.519 208.308 401.441 207.158C403.984 205.637 406.81 204.523 409.62 203.535C411.835 202.756 414.204 202.403 416.516 201.917C418.571 201.485 420.63 201.038 422.709 200.767C425.198 200.443 427.707 200.186 430.214 200.111C432.275 200.05 434.362 200.521 436.406 200.357C439.408 200.116 442.41 199.654 445.35 199.006C446.446 198.765 447.656 197.939 448.306 197.021C449.596 195.197 451.393 194.053 453.275 193.286C454.991 192.588 457.027 192.682 458.918 192.403C460.678 192.144 462.436 191.87 464.19 191.572C465.692 191.317 467.232 191.162 468.673 190.704C470.584 190.097 472.399 189.193 474.289 188.507C475.285 188.146 476.406 188.107 477.373 187.695C479.9 186.621 482.356 185.381 484.874 184.284C486.955 183.377 489.077 182.563 491.194 181.741C494.529 180.444 497.833 179.041 501.234 177.942C503.266 177.285 505.463 177.142 507.577 176.727C509.076 176.434 510.55 175.885 512.056 175.792C513.776 175.686 515.524 175.918 517.252 176.081C518.606 176.209 519.949 176.45 521.295 176.651C521.984 176.754 521.919 177.101 521.421 177.342C519.898 178.079 518.369 178.595 516.574 178.457C514.749 178.318 512.888 178.587 511.048 178.745C508.968 178.925 506.865 179.039 504.825 179.443C502.839 179.836 500.898 180.495 498.978 181.156C497.02 181.83 495.109 182.639 493.185 183.408C492.128 183.83 491.086 184.293 489.871 184.737Z" fill="#00160A"/>
<path fill-rule="evenodd" clip-rule="evenodd" d="M490.954 377.054C491.783 378.55 492.938 379.904 493.151 381.393C493.337 382.693 493.884 384.295 492.596 385.643C491.279 387.021 490.223 388.647 489.028 390.145C486.789 392.955 483.736 393.966 480.272 394.158C477.565 394.308 474.867 394.622 472.16 394.8C469.747 394.959 467.328 395.037 464.911 395.143C462.273 395.259 459.634 395.433 456.995 395.454C455.265 395.467 453.527 395.109 451.803 395.175C448.338 395.306 445.23 394.369 443.034 391.723C441.018 389.293 440.205 386.548 440.949 383.073C442.317 376.677 446.072 372.041 450.674 367.883C452.091 366.602 453.807 365.602 455.507 364.7C457.688 363.543 459.904 362.11 462.26 361.71C465.49 361.162 468.658 360.35 472.193 360.972C477.846 361.966 481.963 364.813 485.312 369.118C487.28 371.646 489.025 374.347 490.954 377.054M491.038 380.139C488.07 375.005 485.097 369.817 480.289 366.174C478.303 364.668 475.849 363.558 473.435 362.9C471.221 362.297 468.849 362.474 466.428 362.907C463.467 363.436 460.611 364.08 457.884 365.29C454.004 367.013 450.727 369.61 448.035 372.84C444.112 377.547 440.908 382.508 443.317 389.153C444.222 391.649 447.407 393.626 450.086 393.193C451.703 392.932 453.401 393.132 455.06 393.189C456.464 393.237 457.872 393.512 459.267 393.447C461.679 393.333 464.078 392.926 466.489 392.837C469.503 392.725 472.523 392.81 475.541 392.81C476.615 392.81 477.716 392.962 478.757 392.776C480.576 392.452 482.465 392.164 484.134 391.428C488.251 389.613 492.736 385.961 491.038 380.139Z" fill="#00160A"/>
<path fill-rule="evenodd" clip-rule="evenodd" d="M235.199 387.224C236.813 385.277 238.525 383.53 239.829 381.519C241.481 378.971 241.624 376.077 241.265 373.051C240.952 370.403 241.949 368.019 243.758 365.962C245.782 363.66 248.454 362.438 251.161 361.292C253.596 360.26 256.046 361.059 258.293 361.929C259.323 362.328 260.171 363.602 260.752 364.669C262.337 367.581 263.146 370.803 264.238 373.915C265.098 376.364 264.39 378.315 263.258 380.013C262.159 381.661 260.399 382.972 258.705 384.093C256.608 385.48 254.368 386.742 252.031 387.648C249.527 388.617 246.843 389.123 244.23 389.801C243.204 390.068 242.165 390.316 241.117 390.455C240.335 390.559 239.526 390.445 238.732 390.481C236.23 390.594 233.731 390.773 231.229 390.847C229.258 390.906 227.283 390.848 225.31 390.839C223.204 390.831 221.098 390.772 218.994 390.822C216.873 390.873 214.755 391.035 212.636 391.139C212.193 391.161 211.746 391.117 211.304 391.152C211.029 391.174 210.762 391.287 210.491 391.36C210.714 391.065 210.878 390.61 211.17 390.502C212.945 389.845 214.753 389.291 216.689 389.475C216.744 389.48 216.801 389.479 216.856 389.475C219.184 389.288 221.512 389.084 223.842 388.919C224.877 388.846 225.919 388.839 226.958 388.823C228.088 388.805 229.22 388.793 230.35 388.815C231.167 388.831 232.064 389.141 232.779 388.896C233.639 388.602 234.344 387.857 235.199 387.224M243.618 370.469C243.599 371.672 243.611 372.877 243.553 374.078C243.47 375.787 243.718 377.636 243.143 379.17C241.954 382.349 240.012 385.15 237.556 387.554C237.187 387.915 236.948 388.409 236.648 388.841C237.237 388.941 237.827 389.13 238.414 389.119C239.111 389.105 239.818 388.972 240.498 388.799C242.573 388.27 244.705 387.873 246.69 387.104C250.669 385.562 254.607 383.898 258.478 382.102C260.544 381.144 262.02 379.448 262.089 377.022C262.131 375.584 261.887 374.137 261.663 372.691C261.276 370.196 260.134 368.135 259.128 365.954C258.398 364.372 256.971 363.38 255.472 363.234C253.71 363.062 251.789 363.401 250.087 363.969C247.006 364.997 244.783 367.094 243.618 370.469Z" fill="#00160A"/>
<path fill-rule="evenodd" clip-rule="evenodd" d="M392.753 211.497C391.891 208.482 393.51 206.234 395.027 204.121C398.394 199.431 403.148 196.444 408.315 194.088C410.557 193.067 412.822 192.052 415.163 191.306C417.975 190.41 420.88 189.805 423.745 189.071C424.145 188.968 424.537 188.784 424.941 188.752C426.029 188.665 425.553 188.248 425.142 187.872C422.647 185.588 420.146 183.311 417.643 181.035C416.515 180.009 415.362 179.009 414.256 177.96C413.918 177.64 413.612 177.231 413.446 176.803C413.288 176.395 413.331 175.91 413.286 175.458C413.705 175.616 414.224 175.667 414.527 175.949C418.301 179.452 422.041 182.993 425.799 186.514C426.267 186.952 427.075 187.768 427.239 187.661C427.882 187.244 428.579 186.604 428.799 185.904C429.318 184.251 429.49 182.492 429.957 180.819C430.807 177.771 433.175 176.046 435.82 174.765C439.067 173.191 442.4 171.786 445.738 170.414C449.94 168.686 454.193 167.084 458.41 165.392C462.34 163.815 466.177 161.957 470.203 160.689C472.172 160.069 474.474 160.506 476.626 160.48C476.705 160.479 476.786 160.638 476.866 160.723C476.725 160.836 476.6 161.001 476.439 161.055C472.13 162.509 467.792 163.881 463.514 165.422C460.563 166.485 457.708 167.813 454.783 168.951C453.56 169.426 452.217 169.603 451.011 170.111C448.486 171.175 446.03 172.403 443.516 173.495C441.667 174.298 439.721 174.89 437.906 175.759C435.448 176.937 432.868 178.126 432.06 181.076C431.759 182.174 432.184 183.51 431.767 184.529C431.187 185.949 430.348 187.419 429.226 188.432C426.915 190.516 423.962 191.406 420.954 192.089C419.123 192.504 417.351 193.209 415.509 193.542C411.795 194.214 408.385 195.671 405.113 197.433C400.596 199.866 397.035 203.365 394.579 207.885C393.913 209.111 393.635 210.547 393.162 211.88C393.112 212.023 392.949 212.127 392.838 212.248C392.838 212.026 392.837 211.803 392.753 211.497Z" fill="#00160A"/>
<path fill-rule="evenodd" clip-rule="evenodd" d="M350.489 322.452C347.96 322.341 345.597 322.132 343.235 322.146C340.81 322.16 338.45 321.937 336.046 321.552C334.07 321.236 332.134 321.124 330.31 320.162C329.373 319.668 329.036 319.201 329.096 318.086C329.186 316.42 328.815 314.734 328.836 313.059C328.892 308.811 329.937 304.88 333.217 301.916C334.756 300.525 336.759 300.039 338.689 299.304C341.716 298.151 344.34 299.47 346.966 299.956C349.589 300.442 351.981 302.256 354.429 303.573C356.353 304.608 358.413 305.537 360.03 306.95C361.459 308.199 362.52 309.965 363.441 311.666C364.148 312.971 364.714 314.528 364.726 315.978C364.736 317.221 364.084 318.618 363.346 319.685C362.084 321.508 360.092 321.977 357.938 321.788C357.718 321.768 357.492 321.766 357.272 321.788C355.066 322.005 352.861 322.23 350.489 322.452M361.326 316.116C361.698 315.266 362.546 314.275 362.344 313.595C361.928 312.196 361.239 310.613 360.156 309.722C355.398 305.805 350.334 302.422 344.089 301.153C340.784 300.481 337.793 300.875 334.897 302.45C332.748 303.62 332.568 305.407 334.421 306.881C335.421 307.676 336.422 308.47 337.444 309.235C341.79 312.491 346.607 314.789 351.87 316.091C353.859 316.583 355.912 316.929 357.953 317.057C359.002 317.122 360.089 316.561 361.326 316.116M360.326 319.784C360.79 319.359 361.254 318.934 361.718 318.509C361.109 318.522 360.5 318.519 359.894 318.56C359.7 318.573 359.506 318.787 359.325 318.77C357.1 318.568 354.858 318.454 352.66 318.082C350.813 317.769 348.93 317.352 347.223 316.613C344.967 315.635 342.83 314.362 340.711 313.1C337.889 311.418 334.986 309.812 333.116 306.936C332.896 306.598 332.485 306.384 332.162 306.113C331.936 306.484 331.594 306.828 331.502 307.23C331.121 308.896 330.776 310.573 330.496 312.259C330.311 313.368 330.158 314.499 330.171 315.618C330.192 317.548 331.559 319.362 332.946 319.446C335.066 319.575 337.261 319.37 339.293 319.857C342.229 320.56 345.153 320.418 348.089 320.428C350.153 320.436 352.217 320.21 354.282 320.123C356.24 320.042 358.2 320.007 360.326 319.784Z" fill="#00160A"/>
<path fill-rule="evenodd" clip-rule="evenodd" d="M389.086 209.829C388.897 208.974 388.685 208.199 388.71 207.431C388.76 205.847 388.788 204.237 389.088 202.689C390.224 196.821 394.42 193.137 398.62 189.412C402.151 186.281 405.794 183.214 407.946 178.827C408.785 177.118 408.672 175.439 408.627 173.598C408.518 169.225 406.12 166.166 403.126 163.641C400.055 161.052 396.567 158.94 393.18 156.745C388.946 154.003 385.345 150.731 383.046 146.134C381.67 143.383 382.355 137.918 384.627 135.815C385.177 135.306 386.049 134.907 386.78 134.895C387.618 134.88 388.026 135.633 387.828 136.529C387.787 136.714 387.695 136.992 387.561 137.037C385.759 137.648 384.003 142.266 385.236 144.016C386.128 145.281 386.45 147.013 387.485 148.1C389.527 150.247 391.839 152.149 394.127 154.047C397.956 157.223 401.964 160.192 405.686 163.486C408.471 165.95 410.468 169.171 411.261 172.79C411.661 174.618 411.303 176.776 410.431 178.649C408.657 182.458 405.89 185.399 402.714 188.116C398.956 191.33 394.8 194.271 392.409 198.76C391.336 200.775 390.61 203.083 390.261 205.34C389.99 207.098 390.561 208.983 390.72 210.814C390.743 211.072 390.556 211.349 390.466 211.617C390.256 211.457 389.991 211.336 389.848 211.129C389.584 210.75 389.391 210.321 389.086 209.829Z" fill="#00160A"/>
<path fill-rule="evenodd" clip-rule="evenodd" d="M570.648 318.2C570.407 319.776 570.403 321.305 570.054 322.751C569.532 324.919 568.884 327.074 568.076 329.151C567.136 331.568 566.036 333.93 564.872 336.249C564.105 337.776 563.152 339.22 562.179 340.63C561.837 341.126 561.185 341.406 560.68 341.793C559.603 342.617 559.334 341.304 559.34 341.011C559.395 338.346 559.257 335.686 560.06 333.042C560.646 331.111 560.598 328.994 560.935 326.978C561.163 325.62 561.598 324.297 561.891 322.948C562.331 320.925 562.704 318.887 563.148 316.865C563.906 313.42 564.705 310.009 568.116 308.019C568.799 307.62 569.116 307.623 569.803 308.07C571.353 309.079 572.007 310.243 571.598 312.13C571.173 314.096 571.01 316.119 570.648 318.2M569.898 315.283C569.976 313.76 570.108 312.238 570.095 310.716C570.091 310.291 569.749 309.717 569.388 309.498C569.115 309.331 568.396 309.474 568.169 309.734C567.449 310.563 566.707 311.438 566.26 312.426C564.888 315.453 564.102 318.617 563.798 321.972C563.549 324.716 562.669 327.402 562.07 330.114C561.898 330.894 561.7 331.671 561.568 332.458C561.217 334.556 560.89 336.658 560.566 338.76C560.5 339.189 560.494 339.626 560.46 340.06C560.938 339.759 561.658 339.57 561.857 339.14C563.372 335.87 564.876 332.587 566.2 329.236C567.136 326.865 567.865 324.402 568.53 321.938C568.847 320.764 568.711 319.473 568.948 318.269C569.127 317.357 569.572 316.498 569.898 315.283Z" fill="#00160A"/>
<path fill-rule="evenodd" clip-rule="evenodd" d="M165.758 394.477C164.553 394.255 163.522 393.989 162.475 393.82C160.85 393.558 159.194 393.457 157.589 393.114C155.643 392.698 153.721 392.15 151.816 391.57C150.093 391.045 148.406 390.404 146.709 389.795C146.649 389.773 146.602 389.467 146.647 389.435C147.024 389.173 147.404 388.783 147.82 388.732C151.248 388.316 154.144 390.295 157.349 390.929C160.017 391.457 162.627 392.291 165.302 392.769C167.109 393.092 168.986 393.003 170.827 393.156C171.681 393.227 172.524 393.431 173.369 393.587C175.572 393.991 177.763 394.489 179.98 394.783C181.807 395.027 183.679 394.934 185.506 395.176C186.903 395.361 188.27 395.806 189.636 396.189C192.289 396.932 194.932 397.712 197.577 398.482C197.742 398.53 197.893 398.624 198.051 398.697C197.9 398.735 197.746 398.817 197.599 398.805C196.009 398.67 194.414 398.569 192.833 398.363C190.968 398.12 189.118 397.766 187.257 397.492C186.268 397.346 185.27 397.26 184.275 397.156C182.089 396.927 179.891 396.779 177.72 396.455C175.827 396.173 173.977 395.605 172.084 395.33C170.167 395.051 168.22 394.981 166.288 394.798C166.158 394.785 166.046 394.588 165.758 394.477Z" fill="#00160A"/>
<path fill-rule="evenodd" clip-rule="evenodd" d="M375.509 232.587C378.341 231.582 384.423 236.219 382.447 240.973C380.166 246.463 373.09 245.417 371.213 243.044C367.688 238.588 370.122 234.5 375.509 232.587ZM372.22 236.849C368.671 240.245 374.62 244.212 377.26 243.324C384.259 240.972 379.831 229.566 372.22 236.849Z" fill="#00160A"/>
<path fill-rule="evenodd" clip-rule="evenodd" d="M571.149 326.037C572.852 322.917 574.225 319.697 577.216 317.657C577.575 317.412 578.295 317.104 578.434 317.242C578.818 317.623 579.197 318.224 579.202 318.741C579.241 323.567 576.101 327.168 574.217 331.243C573.223 333.394 571.805 335.349 570.558 337.381C570.31 337.786 570.002 338.166 569.667 338.505C569.354 338.821 568.701 339.343 568.658 339.302C568.133 338.791 567.469 338.253 567.294 337.601C567.118 336.948 567.371 336.133 567.579 335.432C568.323 332.925 569.092 330.424 569.935 327.95C570.16 327.288 570.681 326.727 571.149 326.037M569.398 332.789C569.175 334.011 568.947 335.232 568.734 336.456C568.681 336.759 568.678 337.07 568.651 337.377C568.956 337.113 569.367 336.906 569.549 336.575C571.896 332.278 574.258 327.988 576.502 323.637C577.119 322.442 577.378 321.058 577.742 319.744C577.791 319.567 577.529 319.158 577.338 319.101C577.125 319.037 576.685 319.175 576.588 319.356C574.227 323.768 571.899 328.196 569.398 332.789Z" fill="#00160A"/>
<path fill-rule="evenodd" clip-rule="evenodd" d="M388.137 217.268C388.137 212.248 399.001 216.276 399.921 217.73C400.152 218.095 400.624 231.921 399.817 229.976C398.954 227.801 399.55 219.03 398.606 218.427C395.552 216.917 391.857 216.138 390.404 216.652C387.895 217.24 390.567 227.867 388.984 226.067C388.893 225.753 388.809 225.436 388.707 225.125C388.591 224.776 388.137 219.701 388.137 217.268Z" fill="#00160A"/>
<path fill-rule="evenodd" clip-rule="evenodd" d="M435.185 198.409C434.444 198.279 433.652 198.343 433.331 197.986C431.799 196.276 430.391 194.456 428.949 192.666C428.72 192.382 428.542 192.056 428.34 191.749C429.025 191.651 429.968 191.222 430.347 191.517C431.355 192.303 432.216 193.333 432.958 194.39C433.852 195.663 434.562 197.064 435.185 198.409Z" fill="#00160A"/>
<path fill-rule="evenodd" clip-rule="evenodd" d="M394.504 218.223C394.542 217.796 395.598 218.745 395.625 219.087C395.776 220.999 396.514 229.431 395.828 228.542C395.44 227.721 395.084 225.441 394.913 224.541C394.743 223.64 394.504 221.041 394.504 218.223Z" fill="#00160A"/>
<path fill-rule="evenodd" clip-rule="evenodd" d="M410.962 257.798C410.939 259.733 411.006 261.667 410.962 263.601C410.936 264.744 407.868 265.198 406.519 264.516C405.166 263.833 405.589 258.589 405.513 257.798C405.276 255.319 405.179 252.819 404.8 250.363C404.55 248.746 404.385 246.798 405.155 246.549C407.954 245.644 410.441 249.13 410.318 249.252C410.64 251.76 410.965 257.524 410.962 257.798ZM406.842 252.261C406.953 252.714 407.095 260.615 407.289 263.431C407.322 263.899 409.128 263.899 409.52 263.08C409.895 260.823 409.112 252.754 409.128 250.06C409.13 249.629 408.586 249.013 408.141 248.793C406.671 248.068 406.408 248.272 406.519 249.9C406.566 250.58 406.731 251.252 406.842 252.261Z" fill="#00160A"/>
<path fill-rule="evenodd" clip-rule="evenodd" d="M312.718 298.042C313.161 297.871 313.659 298.091 313.83 298.534C314.002 298.977 313.781 299.475 313.338 299.646C293.644 307.254 293.644 322.146 313.676 345.108C331.588 365.639 365.083 384.633 414.152 402.044C414.6 402.203 414.834 402.694 414.675 403.142C414.516 403.59 414.025 403.824 413.577 403.665C364.255 386.164 330.525 367.038 312.38 346.239C291.67 322.5 291.67 306.173 312.718 298.042Z" fill="#E7EAEE"/>
<path d="M345.968 398.525C346.123 398.076 346.613 397.838 347.062 397.994C347.511 398.149 347.749 398.638 347.594 399.087C343.771 410.14 336.791 419.35 326.673 426.703C316.588 434.031 299.927 440.663 276.668 446.629C276.208 446.747 275.739 446.47 275.621 446.01C275.503 445.55 275.78 445.081 276.241 444.963L277.858 444.545C300.08 438.737 316.021 432.317 325.662 425.312C335.5 418.162 342.263 409.239 345.968 398.525Z" fill="#09EEE3"/>
<path fill-rule="evenodd" clip-rule="evenodd" d="M346.924 407.939C347.032 407.477 347.494 407.189 347.957 407.297C348.419 407.405 348.707 407.867 348.599 408.33C345.15 423.113 337.809 433.692 326.589 440.005C315.504 446.241 303.558 450.483 290.754 452.729C290.286 452.811 289.84 452.498 289.758 452.03C289.676 451.563 289.989 451.117 290.457 451.035C303.07 448.822 314.832 444.646 325.746 438.506C336.524 432.441 343.579 422.273 346.924 407.939Z" fill="#E7EAEE"/>
<path fill-rule="evenodd" clip-rule="evenodd" d="M400.747 407.073C400.858 406.611 401.323 406.327 401.785 406.438C418.772 410.528 433.81 412.812 446.896 413.291L447.878 413.324C460.95 413.719 479.832 412.675 504.513 410.19C504.985 410.142 505.407 410.487 505.455 410.959C505.502 411.432 505.158 411.854 504.685 411.901L500.97 412.269C477.419 414.555 459.377 415.469 446.833 415.01C433.623 414.526 418.474 412.226 401.382 408.11C400.92 407.999 400.636 407.535 400.747 407.073Z" fill="#E7EAEE"/>
<path fill-rule="evenodd" clip-rule="evenodd" d="M275.063 305.934C275.452 305.661 275.988 305.754 276.261 306.143C276.534 306.531 276.441 307.068 276.052 307.341C271.272 310.7 268.764 314.096 268.447 317.505C268.126 320.956 270.055 325.714 274.289 331.719C274.563 332.107 274.47 332.643 274.082 332.917C273.694 333.191 273.157 333.098 272.884 332.71C268.435 326.401 266.367 321.3 266.735 317.346C267.106 313.351 269.91 309.555 275.063 305.934Z" fill="#00160A"/>
<path fill-rule="evenodd" clip-rule="evenodd" d="M276.915 309.88C277.19 309.687 277.569 309.753 277.762 310.028C277.955 310.303 277.889 310.683 277.614 310.876C274.233 313.252 272.459 315.655 272.234 318.067C272.007 320.508 273.372 323.874 276.367 328.123C276.561 328.397 276.495 328.777 276.221 328.971C275.946 329.164 275.566 329.099 275.373 328.824C272.225 324.361 270.762 320.751 271.022 317.954C271.285 315.128 273.269 312.442 276.915 309.88Z" fill="#00160A"/>
</svg>
